# xmcd
#
# Track frame offsets: 
#        150
#        16850
#        29740
#        48875
#        64085
#        72975
#        88835
#        100745
#        115692
#        130640
#        146102
#        158545
#        169747
#        215980
#        227367
#        239522
#        248265
#        268202
#
# Disc length: 3816 seconds
#
# Revision: 0
# Processed by: cddbd v1.5PL3 Copyright (c) Steve Scherf et al.
# Submitted via: ExactAudioCopy v0.95a5
#
DISCID=f50ee612
DTITLE=Barry Goldberg - "Reunion" and "Two Jews Blues"
DYEAR=1993
DGENRE=Blues
TTITLE0=Sittin' In Circles
TTITLE1=Hole In My Pocket
TTITLE2=It Hurts Me Too
TTITLE3=Fool On The Hill
TTITLE4=Capricorn Blues
TTITLE5=Another Day
TTITLE6=Sugar Coated Love
TTITLE7=Strung and Young
TTITLE8=I Think I'm Gonna Cry
TTITLE9=You're Still My Baby
TTITLE10=That's Alright Mama
TTITLE11=Maxwell Street Shuffle
TTITLE12=Blues For Barry And . . .
TTITLE13=Jimi The Fox
TTITLE14=A Lighter Blue
TTITLE15=On The Road Again
TTITLE16=Twice A Man
TTITLE17=Spirit of Trane
EXTD=
EXTT0=
EXTT1=
EXTT2=
EXTT3=
EXTT4=
EXTT5=
EXTT6=
EXTT7=
EXTT8=
EXTT9=
EXTT10=
EXTT11=
EXTT12=
EXTT13=
EXTT14=
EXTT15=
EXTT16=
EXTT17=
PLAYORDER=
